<svg xmlns="http://www.w3.org/2000/svg" viewBox="0 0 200 200"><rect width="200" height="200" rx="16" fill="#FFFFFF"/><path d="M70 130c-14-14-14-40 6-58s46-20 60-6 12 34-2 50l14 16c6 6 4 14-4 16s-14-2-16-8l-14-12c-16 12-36 12-44 2z" fill="#D9902F"/><path d="M78 120c-8-10-6-28 8-42s34-16 44-6" fill="none" stroke="#B4741F" stroke-width="4" stroke-linecap="round"/><rect x="140" y="150" width="26" height="12" rx="6" fill="#F0E6D2" transform="rotate(40 150 156)"/><g fill="#B4741F"><circle cx="96" cy="92" r="3"/><circle cx="112" cy="86" r="3"/><circle cx="104" cy="108" r="3"/><circle cx="120" cy="104" r="3"/></g></svg>